Coordinates
version=1
nRows=15
nColumns=34
inDegrees=no

Units are S.I. units (second, meters, Newtons, ...)
If the header above contains a line with 'inDegrees', this indicates whether rotational values are in degrees (yes) or radians (no).

endheader
time	pelvis_tilt	pelvis_list	pelvis_rotation	pelvis_tx	pelvis_ty	pelvis_tz	hip_flexion_r	hip_adduction_r	hip_rotation_r	knee_angle_r	ankle_angle_r	subtalar_angle_r	mtp_angle_r	hip_flexion_l	hip_adduction_l	hip_rotation_l	knee_angle_l	ankle_angle_l	subtalar_angle_l	mtp_angle_l	lumbar_extension	lumbar_bending	lumbar_rotation	arm_flex_r	arm_add_r	arm_rot_r	elbow_flex_r	pro_sup_r	arm_flex_l	arm_add_l	arm_rot_l	elbow_flex_l	pro_sup_l
0.88	0.0183017	0.0788568	-0.0275264	0.955518	0.963736	-0.251095	0.505754	-0.137961	0.03342	0.90766	0.0178629	-0.392589	-0.0151613	-0.0129526	0.170497	-0.071523	0.170159	0.252628	-0.0643116	-0.0169065	-0.145914	-0.0925067	-0.113969	-0.142487	-0.118927	-0.112499	0.502911	2.06124	0.166326	-0.18958	0.0997036	0.761123	1.7671
0.89	0.0190815	0.0751941	-0.024121	0.967115	0.963926	-0.251322	0.508854	-0.133433	0.0263234	0.847619	0.0282009	-0.389515	-0.0151617	-0.0340546	0.167226	-0.0668255	0.158748	0.257297	-0.0578032	-0.0168937	-0.149612	-0.0878778	-0.114451	-0.152548	-0.118876	-0.124469	0.497595	2.06134	0.186474	-0.189498	0.112542	0.777169	1.76693
0.9	0.0198957	0.0722441	-0.0207405	0.978743	0.963852	-0.251476	0.509831	-0.129702	0.0177774	0.78492	0.0393786	-0.381269	-0.0151621	-0.0545121	0.164378	-0.0626487	0.148717	0.262721	-0.0512736	-0.0168809	-0.153211	-0.0842175	-0.114934	-0.162456	-0.118711	-0.135625	0.492904	2.06146	0.206117	-0.18946	0.124548	0.792941	1.76769
0.91	0.0208453	0.0699229	-0.0173397	0.990411	0.963525	-0.251555	0.508684	-0.126557	0.00778383	0.720184	0.0518634	-0.366366	-0.0151624	-0.0745994	0.161878	-0.0589592	0.139854	0.268997	-0.044548	-0.016868	-0.15684	-0.0814346	-0.115563	-0.172131	-0.118388	-0.145966	0.488792	2.06157	0.225166	-0.189515	0.135711	0.808498	1.7692
0.92	0.0220094	0.0681195	-0.0138802	1.00213	0.962959	-0.251557	0.505467	-0.123748	-0.00358719	0.654096	0.0659163	-0.34374	-0.0151628	-0.0945416	0.159604	-0.0557979	0.131968	0.276193	-0.0374037	-0.0168552	-0.160594	-0.0794064	-0.116457	-0.181498	-0.117869	-0.155527	0.485244	2.06168	0.243524	-0.189714	0.146049	0.823953	1.77109
0.93	0.0234372	0.0667068	-0.0103366	1.01391	0.962169	-0.251478	0.500319	-0.121008	-0.0161845	0.587431	0.0815689	-0.312948	-0.0151632	-0.114481	0.157402	-0.0532809	0.124935	0.284345	-0.0295922	-0.0168424	-0.164531	-0.0779917	-0.117697	-0.190486	-0.117131	-0.164364	0.482268	2.06178	0.261088	-0.19011	0.155601	0.839433	1.77292
0.94	0.0251477	0.0655513	-0.00670266	1.02577	0.961174	-0.251314	0.493462	-0.118076	-0.0297752	0.521075	0.0986296	-0.274287	-0.0151636	-0.134467	0.1551	-0.0515828	0.118713	0.29345	-0.0208675	-0.0168295	-0.168667	-0.077041	-0.119326	-0.199032	-0.116162	-0.172546	0.479881	2.06186	0.277752	-0.190745	0.164413	0.85505	1.77423
0.95	0.0271363	0.064521	-0.00299397	1.0377	0.959995	-0.251062	0.485199	-0.114717	-0.0440598	0.456033	0.116717	-0.228832	-0.015164	-0.154463	0.152528	-0.0509059	0.113345	0.303454	-0.0110226	-0.0168167	-0.172987	-0.0764031	-0.121341	-0.207073	-0.114971	-0.180141	0.478087	2.06193	0.293414	-0.191642	0.172517	0.870871	1.7747
0.96	0.0293849	0.0634927	0.000749992	1.04972	0.958654	-0.250721	0.475891	-0.110736	-0.0587008	0.393419	0.135315	-0.178361	-0.0151643	-0.174375	0.149532	-0.0514416	0.108941	0.314239	7.29174e-05	-0.0168039	-0.17745	-0.075927	-0.123695	-0.214553	-0.113586	-0.18721	0.476872	2.062	0.307969	-0.192793	0.179918	0.886902	1.7742
0.97	0.0318733	0.0623553	0.00446553	1.06185	0.957181	-0.250287	0.465926	-0.105995	-0.0733643	0.334428	0.153847	-0.125181	-0.0151647	-0.19408	0.145984	-0.0533344	0.105646	0.325615	0.0124399	-0.0167911	-0.182009	-0.0754629	-0.1263	-0.221423	-0.112061	-0.193798	0.476188	2.06206	0.321312	-0.194153	0.186583	0.903085	1.7728
0.98	0.0345879	0.0610106	0.00806572	1.07408	0.955607	-0.249764	0.455694	-0.100418	-0.087763	0.280288	0.171742	-0.0718741	-0.0151651	-0.213454	0.141795	-0.0566578	0.103618	0.337312	0.0259739	-0.0167782	-0.186616	-0.0748604	-0.129035	-0.22764	-0.110476	-0.199933	0.475959	2.06212	0.333333	-0.195638	0.19243	0.919311	1.77075
0.99	0.0375225	0.0593726	0.0114424	1.08643	0.953966	-0.249154	0.445555	-0.0939905	-0.101685	0.232185	0.188487	-0.0210163	-0.0151655	-0.232394	0.136911	-0.0614057	0.102997	0.348996	0.0404453	-0.0167654	-0.191222	-0.0739682	-0.131749	-0.233171	-0.108931	-0.205627	0.476086	2.06218	0.343915	-0.197129	0.197338	0.935436	1.76836
1	0.0406692	0.0573651	0.0144695	1.09893	0.95229	-0.248463	0.43583	-0.0867473	-0.114991	0.191188	0.203635	0.0250894	-0.0151659	-0.250811	0.131316	-0.0674993	0.103898	0.360286	0.0555168	-0.0167526	-0.19577	-0.0726371	-0.134276	-0.237996	-0.107544	-0.210874	0.476458	2.06224	0.352927	-0.198483	0.201152	0.951302	1.76602
1.01	0.0440034	0.0549196	0.0170077	1.11157	0.950607	-0.247697	0.426796	-0.0787568	-0.127586	0.158157	0.216781	0.0646081	-0.0151662	-0.268622	0.125021	-0.0748059	0.106409	0.37078	0.0707752	-0.0167398	-0.200185	-0.070723	-0.13644	-0.242104	-0.106439	-0.215662	0.476963	2.0623	0.360227	-0.199549	0.203701	0.966752	1.764
1.02	0.0474672	0.0519735	0.0189126	1.12438	0.948936	-0.246862	0.418687	-0.0700968	-0.139346	0.133654	0.22751	0.0962683	-0.0151666	-0.285725	0.118056	-0.0831615	0.110602	0.38008	0.0857679	-0.016727	-0.204355	-0.0680929	-0.138076	-0.245491	-0.105733	-0.21997	0.477494	2.06236	0.365665	-0.200182	0.204816	0.981639	1.76255
